<svg version="1.1" 
	id="Capa_1" 
	xmlns="http://www.w3.org/2000/svg" 
	xmlns:xlink="http://www.w3.org/1999/xlink" x="0px" y="0px"
	width="574.199px" height="574.199px" viewBox="0 0 574.199 574.199"
	style="enable-background:new 0 0 574.199 574.199;"
	stroke-width="2" 
	xml:space="preserve">
<g>
	<g>
		<path
			fill="#D93D26"
		 	d="M336.238,68.664v46.98c84.82,20.441,149.709,92.51,159.383,180.983h46.098C531.539,192.783,446.471,90.212,336.238,68.664 z"/>
		<path
			fill="#005EA6"
		 	d="M237.962,115.644v-46.98C127.729,90.212,42.661,192.786,32.48,296.627H78.58 C88.252,208.153,153.143,136.084,237.962,115.644z"/>
		<path 
			fill="#41B401"
			d="M264.15,574.197v-46.1c-97.384-10.646-174.925-88.189-185.57-185.574H32.48 C43.454,465.236,141.441,563.223,264.15,574.197z"/>
		<path 
			fill="#F5C400"
			d="M495.621,342.527c-10.646,97.381-88.189,174.924-185.57,185.574v46.098c122.709-10.973,220.695-108.963,231.668-231.668 h-46.098V342.527z"/>
	</g>
</g>
<g>
</g>
<g>
</g>
<g>
</g>
<g>
</g>
<g>
</g>
<g>
</g>
<g>
</g>
<g>
</g>
<g>
</g>
<g>
</g>
<g>
</g>
<g>
</g>
<g>
</g>
<g>
</g>
<g>
</g>
</svg>
